<svg width="35" height="36" viewBox="0 0 35 36" fill="none" xmlns="http://www.w3.org/2000/svg">
<path d="M10.6861 21.8693C11.4385 24.7909 14.0923 26.9496 17.2506 26.9496C20.4089 26.9496 23.0627 24.7909 23.8152 21.8693M15.5861 2.8419L4.09339 11.775C3.32515 12.3721 2.94103 12.6707 2.6643 13.0446C2.41916 13.3758 2.23656 13.749 2.12544 14.1457C2 14.5935 2 15.0798 2 16.0525V28.3044C2 30.2012 2 31.1496 2.36938 31.8741C2.6943 32.5114 3.21276 33.0295 3.85044 33.3542C4.5754 33.7234 5.52441 33.7234 7.42245 33.7234H27.0788C28.9769 33.7234 29.9259 33.7234 30.6508 33.3542C31.2885 33.0295 31.807 32.5114 32.1319 31.8741C32.5013 31.1496 32.5013 30.2012 32.5013 28.3044V16.0525C32.5013 15.0798 32.5013 14.5935 32.3758 14.1457C32.2647 13.749 32.0821 13.3758 31.837 13.0446C31.5602 12.6707 31.1761 12.3721 30.4079 11.775L18.9152 2.8419C18.3198 2.37916 18.0222 2.14779 17.6935 2.05886C17.4035 1.98038 17.0978 1.98038 16.8078 2.05886C16.4791 2.14779 16.1814 2.37916 15.5861 2.8419Z" stroke="white" stroke-width="4" stroke-linecap="round" stroke-linejoin="round"/>
</svg>
