<svg width="36" height="36" viewBox="0 0 36 36" fill="none" xmlns="http://www.w3.org/2000/svg">
<path d="M15.1199 2.15997C8.35301 2.15997 2.87988 7.6331 2.87988 14.4C2.87988 21.1668 8.35301 26.64 15.1199 26.64C17.5358 26.64 19.7718 25.9312 21.6674 24.7275L30.5099 33.57L33.5699 30.51L24.8399 21.8025C26.4093 19.7437 27.3599 17.1928 27.3599 14.4C27.3599 7.6331 21.8868 2.15997 15.1199 2.15997ZM15.1199 5.03997C20.3033 5.03997 24.4799 9.21654 24.4799 14.4C24.4799 19.5834 20.3033 23.76 15.1199 23.76C9.93645 23.76 5.75988 19.5834 5.75988 14.4C5.75988 9.21654 9.93645 5.03997 15.1199 5.03997Z" fill="white"/>
</svg>
