<svg width="36" height="36" viewBox="0 0 36 36" fill="none" xmlns="http://www.w3.org/2000/svg">
<path d="M18 15.75C13.6577 15.75 10.125 12.2173 10.125 7.875C10.125 3.53265 13.6577 0 18 0C22.3423 0 25.875 3.53265 25.875 7.875C25.875 12.2173 22.3423 15.75 18 15.75ZM18 2.25C14.8986 2.25 12.375 4.77356 12.375 7.875C12.375 10.9764 14.8986 13.5 18 13.5C21.1014 13.5 23.625 10.9764 23.625 7.875C23.625 4.77356 21.1014 2.25 18 2.25Z" fill="white"/>
<path d="M26.9352 36H9.06482C6.54785 36 4.5 33.9521 4.5 31.4352C4.5 23.9914 10.5562 17.9352 18 17.9352C25.4438 17.9352 31.5 23.9914 31.5 31.4352C31.5 33.9521 29.4521 36 26.9352 36ZM18 20.1852C11.7966 20.1852 6.75 25.2318 6.75 31.4352C6.75 32.7118 7.78821 33.75 9.06482 33.75H26.9352C28.2118 33.75 29.25 32.7118 29.25 31.4352C29.25 25.2318 24.2034 20.1852 18 20.1852Z" fill="white"/>
</svg>
